<?xml version="1.0" standalone="no"?>
<!DOCTYPE svg PUBLIC "-//W3C//DTD SVG 20010904//EN"
 "http://www.w3.org/TR/2001/REC-SVG-20010904/DTD/svg10.dtd">
<svg version="1.0" xmlns="http://www.w3.org/2000/svg"
 width="360.000000pt" height="360.000000pt" viewBox="0 0 360.000000 360.000000"
 preserveAspectRatio="xMidYMid meet">
<metadata>
Created by potrace 1.11, written by Peter Selinger 2001-2013
</metadata>
<g transform="translate(0.000000,360.000000) scale(0.100000,-0.100000)"
fill="#000000" stroke="none">
<path d="M0 1800 l0 -1800 1800 0 1800 0 0 1800 0 1800 -1800 0 -1800 0 0
-1800z m330 860 c0 -9 -9 -29 -20 -43 -11 -14 -20 -29 -20 -33 0 -8 -95 -211
-110 -234 -5 -8 -17 -30 -25 -49 -9 -20 -19 -31 -24 -25 -10 11 -31 240 -31
337 0 60 2 67 19 67 25 0 28 -12 37 -155 4 -66 9 -113 12 -105 5 15 38 88 93
207 24 50 33 60 49 56 11 -3 20 -13 20 -23z m207 -72 c10 -12 38 -296 31 -303
-2 -2 -12 -5 -23 -7 -17 -2 -20 3 -23 40 l-3 42 -49 0 c-48 0 -50 -1 -71 -42
-27 -54 -24 -52 -48 -38 -21 11 -21 13 37 123 33 62 69 131 81 155 22 43 49
55 68 30z m411 -15 c3 -22 0 -23 -72 -23 -41 0 -77 -3 -79 -7 -3 -5 -8 -23
-12 -40 l-7 -33 62 0 c58 0 61 -1 58 -22 -3 -21 -9 -23 -64 -26 l-62 -3 -11
-44 c-6 -24 -11 -55 -11 -69 0 -21 -5 -26 -26 -26 -25 0 -26 3 -21 33 33 182
50 258 60 275 6 9 33 12 95 10 82 -3 87 -4 90 -25z m317 2 c0 -18 -8 -20 -77
-23 -75 -3 -78 -4 -78 -27 0 -13 -3 -30 -6 -39 -5 -13 3 -16 48 -16 61 0 68
-3 61 -30 -4 -16 -16 -20 -66 -22 l-62 -3 -7 -45 c-14 -84 -17 -90 -43 -90
-29 0 -29 -1 -10 70 8 30 19 80 24 111 5 31 14 75 21 98 l11 42 92 -3 c84 -3
92 -5 92 -23z m300 0 c0 -18 -8 -20 -71 -23 l-72 -3 -10 -39 -10 -40 60 0 c56
0 59 -1 56 -22 -3 -20 -10 -24 -63 -28 -53 -4 -60 -8 -66 -30 -16 -58 -14 -60
55 -60 67 0 80 -7 70 -34 -5 -13 -24 -16 -101 -16 l-95 0 7 33 c4 17 11 50 15
72 44 236 31 216 137 213 80 -3 88 -5 88 -23z m180 16 c6 -10 -17 -153 -35
-211 -5 -19 -10 -38 -10 -42 0 -5 34 -8 76 -8 72 0 75 -1 72 -22 -3 -22 -8
-23 -106 -26 -95 -2 -103 -1 -98 15 6 21 47 214 54 258 6 38 33 58 47 36z
m379 0 c21 -5 43 -14 49 -20 16 -16 12 -89 -7 -110 -15 -16 -15 -19 -1 -31 35
-29 4 -113 -50 -136 -40 -16 -185 -19 -185 -4 0 6 12 22 26 35 19 18 28 39 34
87 5 35 14 79 20 98 12 43 13 40 -5 40 -18 0 -20 36 -2 43 20 9 79 7 121 -2z
m321 -23 c19 -120 35 -272 28 -278 -4 -5 -17 -10 -28 -12 -17 -3 -20 3 -23 40
l-3 42 -49 0 c-46 0 -51 -2 -64 -32 -25 -56 -32 -63 -49 -49 -14 11 -13 44 3
66 4 6 33 60 65 120 66 128 71 135 96 135 13 0 20 -10 24 -32z m245 13 c5 -11
10 -29 10 -41 0 -12 10 -54 22 -93 l22 -72 9 40 c5 22 14 69 21 104 7 41 17
68 29 75 29 18 37 -9 21 -73 -8 -31 -18 -82 -23 -114 -16 -97 -29 -127 -57
-127 -14 0 -26 6 -28 13 -16 60 -31 121 -40 165 l-12 54 -13 -69 c-28 -153
-31 -163 -55 -163 -26 0 -26 15 -1 130 8 36 19 91 26 122 11 53 18 61 51 67 4
0 12 -8 18 -18z m438 -17 c26 -29 28 -74 8 -150 -27 -103 -69 -134 -181 -134
-59 0 -65 2 -65 21 0 11 8 23 18 25 13 4 21 27 34 92 10 48 21 97 24 110 5 16
2 22 -10 22 -19 0 -22 36 -3 44 6 3 44 3 82 1 59 -4 73 -9 93 -31z m182 -6 c6
-24 16 -58 21 -76 l11 -32 30 42 c16 24 39 58 50 76 22 35 25 37 48 22 12 -8
13 -13 2 -27 -6 -10 -16 -28 -22 -40 -5 -13 -14 -23 -20 -23 -5 0 -10 -4 -10
-10 0 -5 -15 -30 -34 -54 -18 -24 -36 -61 -40 -83 -12 -63 -16 -73 -38 -73
-19 0 -20 4 -14 69 5 51 3 79 -9 112 -32 87 -36 113 -18 127 26 19 31 15 43
-30z m-342 -964 c68 -20 113 -45 170 -96 23 -21 47 -36 51 -33 14 8 49 -47 49
-75 0 -14 7 -45 17 -70 43 -115 34 -259 -24 -365 -49 -90 -54 -100 -61 -114
-3 -8 -13 -18 -21 -22 -8 -3 -34 -17 -59 -30 -124 -65 -119 -64 -235 -63 -101
0 -115 3 -175 31 -36 17 -73 33 -82 36 -16 6 -35 30 -96 124 -15 23 -32 43
-38 43 -25 0 -46 39 -40 72 4 18 6 69 6 113 -1 47 6 105 16 140 9 33 17 77 18
99 2 37 24 66 51 66 6 0 26 16 45 35 106 110 261 151 408 109z"/>
<path d="M472 2463 c-12 -28 -22 -54 -22 -57 0 -3 14 -6 30 -6 26 0 30 3 29
28 -1 15 -4 41 -8 57 -6 30 -6 30 -29 -22z"/>
<path d="M2056 2519 c-10 -51 -8 -59 19 -59 27 0 65 31 65 53 0 21 -22 37 -51
37 -22 0 -28 -6 -33 -31z"/>
<path d="M2046 2406 c-8 -6 -16 -26 -20 -43 -5 -32 -4 -33 28 -33 54 0 66 9
66 45 0 29 -4 33 -30 37 -17 3 -37 0 -44 -6z"/>
<path d="M2376 2465 c-14 -31 -26 -58 -26 -60 0 -3 14 -5 30 -5 l30 0 0 60 c0
33 -2 60 -4 60 -2 0 -15 -25 -30 -55z"/>
<path d="M3016 2542 c-3 -5 -10 -37 -15 -73 -6 -35 -15 -80 -21 -99 -5 -19
-10 -36 -10 -37 0 -9 69 -1 82 10 44 35 65 177 29 197 -24 12 -58 13 -65 2z"/>
</g>
</svg>
